<svg width="581" height="256" viewBox="0 0 581 256" fill="none" xmlns="http://www.w3.org/2000/svg">
<g clip-path="url(#clip0_201_254)">
<path d="M199.82 59.24L526.54 40.7C528.634 40.5838 530.725 40.9832 532.628 41.8631C534.532 42.743 536.191 44.0764 537.459 45.7466C538.728 47.4168 539.567 49.3727 539.904 51.4428C540.24 53.5129 540.064 55.6339 539.39 57.62L512.25 137.47C511.12 140.79 507.98 143.01 504.48 139.95L219.65 136.44L199.82 59.24Z" fill="#D6EDFC"/>
<path d="M270.18 136.92L564.18 120.24C566.785 120.104 569.383 120.608 571.749 121.706C574.115 122.805 576.177 124.465 577.754 126.542C579.332 128.619 580.377 131.051 580.8 133.625C581.223 136.199 581.01 138.837 580.18 141.31L561 197.82C559.411 202.496 556.384 206.549 552.351 209.4C548.319 212.25 543.488 213.752 538.55 213.69L299.87 210.74C296.6 210.701 293.434 209.579 290.87 207.548C288.306 205.518 286.488 202.694 285.7 199.52L270.18 136.92Z" fill="#FFCE49"/>
<path d="M249.61 107.26C248.902 106.829 248.317 106.222 247.912 105.499C247.507 104.775 247.296 103.959 247.3 103.13C247.281 101.889 247.755 100.692 248.617 99.8C249.479 98.9078 250.66 98.3937 251.9 98.37H252.07C252.906 98.3619 253.728 98.5795 254.45 99C257.873 101.315 261.871 102.638 266 102.82C269.5 102.82 271.09 101.55 271.09 99.64V99.48C271.09 96.86 266.96 95.99 262.27 94.56C256.27 92.81 249.57 90.04 249.57 81.78V81.62C249.57 72.97 256.57 68.12 265.13 68.12C269.715 68.1823 274.224 69.2977 278.31 71.38C279.172 71.7773 279.9 72.4154 280.408 73.2174C280.915 74.0194 281.18 74.951 281.17 75.9C281.173 77.159 280.676 78.3677 279.79 79.2617C278.903 80.1557 277.699 80.6621 276.44 80.67H276.32C275.544 80.6889 274.777 80.499 274.1 80.12C271.259 78.5701 268.118 77.6493 264.89 77.42C261.95 77.42 260.44 78.69 260.44 80.36V80.52C260.44 82.9 264.49 84.01 269.1 85.6C275.05 87.6 281.96 90.44 281.96 98.22V98.38C281.96 107.82 274.89 112.12 265.68 112.12C259.966 112.088 254.384 110.4 249.61 107.26V107.26Z" fill="#00B4CF"/>
<path d="M309.05 112.26C296.27 112.26 286.83 103.26 286.83 90.26V90.1C286.83 77.95 295.48 67.95 307.83 67.95C322.05 67.95 328.32 79.62 328.32 88.43C328.359 89.1525 328.255 89.8756 328.014 90.5579C327.774 91.2402 327.4 91.8682 326.916 92.4061C326.432 92.944 325.847 93.381 325.194 93.6923C324.541 94.0036 323.833 94.1829 323.11 94.22H298.81C299.187 96.6585 300.464 98.8673 302.389 100.411C304.314 101.955 306.748 102.721 309.21 102.56C312.308 102.582 315.325 101.576 317.79 99.7C318.615 99.0251 319.655 98.6701 320.72 98.7C321.326 98.6894 321.929 98.7985 322.493 99.021C323.057 99.2436 323.571 99.5752 324.007 99.9969C324.443 100.419 324.791 100.922 325.031 101.479C325.272 102.035 325.401 102.634 325.41 103.24V103.46C325.415 104.134 325.276 104.801 325.002 105.417C324.728 106.033 324.325 106.583 323.82 107.03C319.705 110.527 314.448 112.388 309.05 112.26V112.26ZM316.83 86.7C316.12 81.3 312.94 77.7 307.83 77.7C302.72 77.7 299.57 81.27 298.62 86.7H316.83Z" fill="#00B4CF"/>
<path d="M338.29 121.24C337.047 120.83 336.019 119.944 335.43 118.775C334.841 117.607 334.74 116.252 335.15 115.01C335.56 113.767 336.446 112.739 337.615 112.15C338.783 111.561 340.137 111.46 341.38 111.87L341.78 112.02C345.459 113.73 349.473 114.601 353.53 114.57C361.79 114.57 365.68 110.57 365.68 102.97V100.91C364.098 103.103 362.006 104.879 359.584 106.083C357.162 107.287 354.484 107.883 351.78 107.82C341.86 107.82 332.88 100.59 332.88 87.9699V87.8099C332.88 75.0999 342 67.9999 351.78 67.9999C354.403 67.9411 357.004 68.4827 359.386 69.5833C361.767 70.6839 363.865 72.3143 365.52 74.3499V74.2699C365.531 72.6693 366.177 71.1385 367.316 70.0143C368.455 68.89 369.994 68.2643 371.595 68.2749C373.196 68.2855 374.726 68.9315 375.851 70.0708C376.975 71.2101 377.601 72.7493 377.59 74.3499V101.73C377.59 109.36 375.76 114.91 372.19 118.49C368.19 122.49 362.11 124.21 353.85 124.21C348.519 124.246 343.233 123.237 338.29 121.24ZM365.68 87.9999V87.8399C365.563 85.171 364.42 82.6504 362.49 80.8033C360.56 78.9562 357.991 77.9252 355.32 77.9252C352.649 77.9252 350.08 78.9562 348.15 80.8033C346.22 82.6504 345.077 85.171 344.96 87.8399V87.9999C344.923 90.5762 345.91 93.0619 347.704 94.9108C349.499 96.7597 351.954 97.8204 354.53 97.8599C354.78 97.8599 355.03 97.8599 355.28 97.8599C356.569 97.9343 357.86 97.754 359.079 97.3294C360.298 96.9047 361.422 96.2441 362.386 95.3851C363.35 94.5261 364.135 93.4857 364.697 92.3232C365.259 91.1607 365.586 89.8989 365.66 88.6099C365.66 88.4099 365.66 88.2099 365.66 88.0199L365.68 87.9999Z" fill="#00B4CF"/>
<path d="M424 105.75C424 107.35 423.364 108.885 422.232 110.017C421.101 111.149 419.566 111.785 417.965 111.785C416.364 111.785 414.829 111.149 413.698 110.017C412.566 108.885 411.93 107.35 411.93 105.75V105.28C409.15 108.85 405.58 112.1 399.46 112.1C390.33 112.1 385.01 106.1 385.01 96.2999V74.2999C385.01 72.6993 385.646 71.1643 386.778 70.0325C387.909 68.9007 389.444 68.2649 391.045 68.2649C392.646 68.2649 394.181 68.9007 395.312 70.0325C396.444 71.1643 397.08 72.6993 397.08 74.2999V92.4899C397.08 98.2099 399.78 101.14 404.39 101.14C409 101.14 411.93 98.2099 411.93 92.4899V74.3099C411.93 72.7093 412.566 71.1743 413.698 70.0425C414.829 68.9107 416.364 68.2749 417.965 68.2749C419.566 68.2749 421.101 68.9107 422.232 70.0425C423.364 71.1743 424 72.7093 424 74.3099V105.75Z" fill="#00B4CF"/>
<path d="M433.19 74.3099C433.19 72.7093 433.826 71.1743 434.958 70.0425C436.089 68.9107 437.624 68.2749 439.225 68.2749C440.826 68.2749 442.361 68.9107 443.492 70.0425C444.624 71.1743 445.26 72.7093 445.26 74.3099V76.2099C447 72.0799 449.86 68.2699 453.43 68.2699C454.86 68.2718 456.239 68.7981 457.307 69.7492C458.375 70.7003 459.056 72.01 459.223 73.4302C459.389 74.8503 459.029 76.2821 458.21 77.4543C457.391 78.6265 456.171 79.4575 454.78 79.7899C448.67 81.2199 445.25 85.8999 445.25 94.4799V105.75C445.25 107.35 444.614 108.886 443.482 110.017C442.351 111.149 440.816 111.785 439.215 111.785C437.614 111.785 436.079 111.149 434.948 110.017C433.816 108.886 433.18 107.35 433.18 105.75L433.19 74.3099Z" fill="#00B4CF"/>
<path d="M459.84 90.27V90.11C459.84 77.88 469.68 67.96 482.94 67.96C496.2 67.96 505.89 77.72 505.89 89.96V90.12C505.89 102.35 496.04 112.27 482.78 112.27C469.52 112.27 459.84 102.5 459.84 90.27Z" fill="#00B4CF"/>
<path d="M482.44 102.9C481.15 103.2 479.87 103.53 478.57 103.79C477.693 104.028 476.789 104.152 475.88 104.16C474.699 104.068 473.602 103.511 472.831 102.611C472.061 101.711 471.679 100.541 471.77 99.36C471.788 99.1413 471.821 98.9241 471.87 98.71C472.23 97.0448 473.092 95.5301 474.34 94.3701C475.34 93.3001 476.34 92.1301 477.28 90.9801C477.98 90.1301 478.6 89.21 479.33 88.4C479.758 87.9622 480.268 87.6132 480.832 87.3732C481.395 87.1331 482 87.0066 482.613 87.001C483.225 86.9955 483.832 87.1109 484.4 87.3407C484.967 87.5705 485.484 87.9101 485.92 88.34C485.98 88.34 486.02 88.44 486.07 88.49C486.74 89.28 487.27 90.18 487.92 90.99C488.85 92.16 489.77 93.35 490.8 94.42C491.603 95.1135 492.246 95.9737 492.683 96.9409C493.12 97.908 493.341 98.9588 493.33 100.02C493.255 101.2 492.715 102.302 491.828 103.084C490.941 103.866 489.78 104.264 488.6 104.19H488.32C486.86 103.97 485.43 103.54 483.99 103.19C483.49 103.08 482.99 103.06 482.48 102.99L482.44 102.9Z" fill="#D6EDFC"/>
<path d="M483.81 82.11C483.751 80.3949 484.34 78.7205 485.46 77.42C485.839 76.9176 486.346 76.5276 486.929 76.2915C487.512 76.0555 488.149 75.9824 488.77 76.08C489.407 76.218 489.99 76.5382 490.448 77.0016C490.906 77.465 491.219 78.0516 491.35 78.69C491.671 79.8465 491.669 81.069 491.343 82.2242C491.016 83.3793 490.379 84.4225 489.5 85.24C489.109 85.6524 488.612 85.9507 488.065 86.1031C487.517 86.2556 486.938 86.2564 486.389 86.1054C485.841 85.9545 485.344 85.6575 484.952 85.2462C484.559 84.8349 484.285 84.3247 484.16 83.77C483.998 83.2271 483.881 82.6719 483.81 82.11V82.11Z" fill="#D6EDFC"/>
<path d="M474 80.57C473.95 79.5141 474.222 78.4679 474.78 77.57C475.161 76.8899 475.796 76.3888 476.546 76.1769C477.296 75.965 478.1 76.0596 478.78 76.44C478.921 76.5183 479.055 76.6086 479.18 76.71C479.953 77.2956 480.566 78.0656 480.964 78.9496C481.363 79.8335 481.533 80.8032 481.46 81.77C481.469 82.8145 481.151 83.8356 480.55 84.69C480.131 85.3313 479.475 85.7807 478.725 85.94C477.976 86.0993 477.194 85.9555 476.55 85.54L476.42 85.45C475.645 84.8993 475.019 84.1656 474.597 83.3141C474.174 82.4626 473.969 81.5199 474 80.57V80.57Z" fill="#D6EDFC"/>
<path d="M490.75 88.8799C490.773 87.9897 491.008 87.1178 491.436 86.3368C491.864 85.5557 492.472 84.8883 493.21 84.3899C493.683 84.0076 494.259 83.7738 494.865 83.7182C495.47 83.6626 496.079 83.7876 496.614 84.0775C497.149 84.3673 497.586 84.8091 497.87 85.347C498.154 85.8849 498.272 86.4948 498.21 87.0999C498.226 87.9661 498.034 88.8235 497.65 89.5998C497.265 90.376 496.699 91.0483 496 91.5599C495.528 91.9779 494.942 92.2465 494.318 92.332C493.693 92.4174 493.057 92.3158 492.49 92.0399C491.93 91.7332 491.468 91.2729 491.16 90.7132C490.852 90.1536 490.71 89.5176 490.75 88.8799Z" fill="#D6EDFC"/>
<path d="M474.66 88.93C474.65 89.2052 474.62 89.4792 474.57 89.75C474.529 90.1342 474.412 90.5065 474.227 90.8457C474.042 91.1849 473.792 91.4842 473.491 91.7266C473.19 91.969 472.844 92.1497 472.474 92.2584C472.103 92.3671 471.714 92.4016 471.33 92.36C470.69 92.2871 470.09 92.0101 469.62 91.57C468.78 90.9585 468.141 90.1107 467.785 89.1347C467.429 88.1587 467.371 87.0987 467.62 86.09C467.682 85.7098 467.818 85.3457 468.023 85.0192C468.227 84.6927 468.494 84.4103 468.809 84.1885C469.124 83.9668 469.48 83.8102 469.856 83.7281C470.232 83.6459 470.621 83.6397 471 83.71C471.431 83.782 471.841 83.9494 472.2 84.2C472.973 84.7192 473.604 85.4244 474.034 86.2509C474.464 87.0774 474.679 87.9986 474.66 88.93V88.93Z" fill="#D6EDFC"/>
<path d="M299.79 154.08C299.79 152.479 300.426 150.944 301.558 149.813C302.689 148.681 304.224 148.045 305.825 148.045C307.426 148.045 308.961 148.681 310.092 149.813C311.224 150.944 311.86 152.479 311.86 154.08V154.63C313.319 152.464 315.296 150.699 317.612 149.493C319.929 148.288 322.51 147.682 325.12 147.73C335.05 147.73 344.5 155.51 344.5 169.73V169.89C344.5 184.1 335.21 191.89 325.12 191.89C322.567 191.938 320.038 191.387 317.736 190.283C315.433 189.178 313.421 187.551 311.86 185.53V198.24C311.86 199.841 311.224 201.376 310.092 202.507C308.961 203.639 307.426 204.275 305.825 204.275C304.224 204.275 302.689 203.639 301.558 202.507C300.426 201.376 299.79 199.841 299.79 198.24V154.08ZM332.43 169.88V169.72C332.43 162.65 327.66 157.97 322.03 157.97C316.4 157.97 311.7 162.65 311.7 169.72V169.88C311.7 176.95 316.39 181.63 322.03 181.63C327.67 181.63 332.43 177.03 332.43 169.88Z" fill="#123546"/>
<path d="M371.42 192C358.64 192 349.2 183 349.2 170V169.84C349.2 157.69 357.85 147.69 370.2 147.69C384.42 147.69 390.69 159.36 390.69 168.18C390.764 169.638 390.257 171.066 389.28 172.151C388.304 173.236 386.938 173.89 385.48 173.97H361.18C361.557 176.409 362.834 178.617 364.759 180.161C366.684 181.705 369.118 182.472 371.58 182.31C374.679 182.339 377.698 181.333 380.16 179.45C380.987 178.779 382.026 178.425 383.09 178.45C383.696 178.439 384.299 178.549 384.863 178.771C385.427 178.994 385.941 179.325 386.377 179.747C386.813 180.169 387.161 180.672 387.402 181.229C387.642 181.785 387.771 182.384 387.78 182.99V183.21C387.785 183.884 387.646 184.552 387.372 185.167C387.098 185.783 386.695 186.333 386.19 186.78C382.074 190.273 376.817 192.131 371.42 192V192ZM379.2 166.43C378.49 161.03 375.31 157.38 370.2 157.38C365.09 157.38 362 161 361 166.47L379.2 166.43Z" fill="#123546"/>
<path d="M396.89 138.68C396.89 137.079 397.526 135.544 398.658 134.413C399.789 133.281 401.324 132.645 402.925 132.645C404.526 132.645 406.061 133.281 407.192 134.413C408.324 135.544 408.96 137.079 408.96 138.68V185.55C408.96 187.151 408.324 188.686 407.192 189.817C406.061 190.949 404.526 191.585 402.925 191.585C401.324 191.585 399.789 190.949 398.658 189.817C397.526 188.686 396.89 187.151 396.89 185.55V138.68Z" fill="#123546"/>
<path d="M454.92 185.52C454.92 187.121 454.284 188.656 453.152 189.787C452.021 190.919 450.486 191.555 448.885 191.555C447.284 191.555 445.749 190.919 444.618 189.787C443.486 188.656 442.85 187.121 442.85 185.52V185C440.07 188.57 436.5 191.83 430.38 191.83C421.25 191.83 415.93 185.83 415.93 176.03V154.03C415.93 152.429 416.566 150.894 417.698 149.763C418.829 148.631 420.364 147.995 421.965 147.995C423.566 147.995 425.101 148.631 426.232 149.763C427.364 150.894 428 152.429 428 154.03V172.21C428 177.92 430.7 180.86 435.3 180.86C439.9 180.86 442.85 177.92 442.85 172.21V154.07C442.85 152.469 443.486 150.934 444.618 149.803C445.749 148.671 447.284 148.035 448.885 148.035C450.486 148.035 452.021 148.671 453.152 149.803C454.284 150.934 454.92 152.469 454.92 154.07V185.52Z" fill="#123546"/>
<path d="M505.89 185.52C505.89 187.121 505.254 188.656 504.122 189.787C502.991 190.919 501.456 191.555 499.855 191.555C498.254 191.555 496.719 190.919 495.588 189.787C494.456 188.656 493.82 187.121 493.82 185.52V185C492.363 187.167 490.386 188.935 488.069 190.142C485.753 191.349 483.171 191.957 480.56 191.91C470.63 191.91 461.18 184.12 461.18 169.91V169.75C461.18 155.54 470.47 147.75 480.56 147.75C483.113 147.698 485.642 148.246 487.945 149.348C490.248 150.451 492.26 152.079 493.82 154.1V138.7C493.82 137.099 494.456 135.564 495.588 134.433C496.719 133.301 498.254 132.665 499.855 132.665C501.456 132.665 502.991 133.301 504.122 134.433C505.254 135.564 505.89 137.099 505.89 138.7V185.52ZM473.26 169.72V169.88C473.26 176.95 478.03 181.63 483.67 181.63C489.31 181.63 494 177 494 169.88V169.72C494 162.66 489.31 157.97 483.68 157.97C478.05 157.97 473.26 162.59 473.26 169.72Z" fill="#123546"/>
<path d="M513.43 170V169.84C513.43 157.61 523.28 147.69 536.54 147.69C549.8 147.69 559.54 157.46 559.54 169.69V169.85C559.54 182.08 549.69 192.01 536.43 192.01C523.17 192.01 513.43 182.27 513.43 170Z" fill="#123546"/>
<path d="M542.6 184.08C541.39 183.8 540.24 183.62 539.13 183.28C537.177 182.666 535.083 182.666 533.13 183.28C531.744 183.725 530.296 183.947 528.84 183.94C528.056 183.842 527.31 183.544 526.675 183.075C526.039 182.605 525.535 181.98 525.21 181.26C525.1 181.017 525.007 180.766 524.93 180.51C524.716 180.009 524.694 179.447 524.867 178.931C525.04 178.415 525.397 177.98 525.87 177.71C527.836 176.482 529.408 174.715 530.4 172.62C530.96 171.44 531.31 170.13 531.95 168.99C532.403 168.272 533.003 167.659 533.71 167.19C534.141 166.887 534.63 166.676 535.146 166.571C535.663 166.466 536.195 166.469 536.71 166.58C537.601 166.674 538.457 166.975 539.21 167.46C539.369 167.576 539.501 167.725 539.594 167.898C539.688 168.072 539.741 168.264 539.75 168.46C539.899 170.246 540.429 171.98 541.303 173.544C542.178 175.108 543.377 176.468 544.82 177.53C545.359 177.892 545.916 178.226 546.49 178.53C547.55 179.09 547.65 179.46 547.34 180.6C547.18 181.234 546.88 181.824 546.463 182.327C546.046 182.83 545.523 183.234 544.93 183.51C544.173 183.772 543.393 183.963 542.6 184.08V184.08Z" fill="#FFCE49"/>
<path d="M529.91 153.18C530.151 153.547 530.343 153.943 530.48 154.36C530.57 154.84 530.87 154.91 531.23 155.1C531.944 155.439 532.593 155.899 533.15 156.46C533.871 157.211 534.399 158.125 534.69 159.125C534.981 160.124 535.025 161.18 534.82 162.2C534.713 163.063 534.309 163.862 533.678 164.461C533.047 165.059 532.228 165.419 531.36 165.48C530.642 165.51 529.931 165.328 529.315 164.956C528.7 164.584 528.208 164.04 527.9 163.39C527.14 161.866 526.99 160.111 527.48 158.48C527.687 157.344 528.234 156.298 529.05 155.48C529.19 155.35 529.16 155.02 529.16 154.79C529.105 154.477 529.147 154.155 529.281 153.867C529.416 153.579 529.635 153.339 529.91 153.18V153.18Z" fill="#FFCE49"/>
<path d="M542.46 153.65C543.04 154.37 543.34 154.95 543.05 155.71C543.029 155.8 543.028 155.894 543.049 155.984C543.07 156.074 543.111 156.158 543.17 156.23C544.089 157.262 544.638 158.571 544.73 159.95C544.909 160.867 544.815 161.816 544.46 162.68C544.104 163.544 543.503 164.285 542.73 164.81C542.381 165.053 541.987 165.225 541.571 165.316C541.156 165.406 540.726 165.414 540.307 165.339C539.889 165.264 539.489 165.107 539.131 164.877C538.772 164.647 538.463 164.349 538.22 164C538.079 163.806 537.965 163.594 537.88 163.37C537.446 162.038 537.448 160.603 537.885 159.273C538.322 157.942 539.171 156.785 540.31 155.97C540.509 155.801 540.752 155.69 541.01 155.65C541.63 155.65 541.77 155.24 541.94 154.78C542.09 154.393 542.263 154.015 542.46 153.65Z" fill="#FFCE49"/>
<path d="M522.58 163.33C523.613 163.519 524.572 163.994 525.348 164.702C526.124 165.409 526.686 166.319 526.97 167.33C527.201 167.91 527.295 168.536 527.245 169.159C527.195 169.782 527.001 170.384 526.68 170.92C526.424 171.392 526.05 171.79 525.594 172.075C525.139 172.36 524.617 172.522 524.08 172.545C523.543 172.568 523.01 172.452 522.531 172.207C522.053 171.963 521.646 171.599 521.35 171.15C520.738 170.406 520.371 169.491 520.3 168.53C520.08 167.08 520.351 165.598 521.07 164.32C521.18 164.14 521.07 163.85 521.13 163.61C521.168 163.09 521.251 162.575 521.38 162.07C521.52 161.65 521.84 161.68 522.05 162.07C522.26 162.46 522.39 162.88 522.58 163.33Z" fill="#FFCE49"/>
<path d="M544.52 169.45C544.605 168.395 544.998 167.387 545.65 166.553C546.303 165.719 547.186 165.096 548.19 164.76C548.81 164.68 548.53 164.04 548.83 163.76C548.95 163.65 548.94 163.41 549.04 163.27C549.177 163.092 549.327 162.925 549.49 162.77C549.65 162.97 549.92 163.16 549.94 163.38C549.975 163.906 549.975 164.434 549.94 164.96C549.94 165.1 549.87 165.27 549.94 165.38C550.617 166.553 550.841 167.933 550.57 169.26C550.483 169.822 550.278 170.358 549.967 170.834C549.657 171.31 549.249 171.714 548.77 172.02C548.364 172.323 547.875 172.497 547.369 172.519C546.862 172.54 546.36 172.408 545.93 172.14C545.464 171.871 545.085 171.476 544.835 170.999C544.586 170.523 544.476 169.986 544.52 169.45V169.45Z" fill="#FFCE49"/>
<path d="M43.62 112.49C69 89.41 131 41.18 209.48 36.46C214.598 36.1395 219.634 37.8637 223.481 41.2537C227.329 44.6438 229.673 49.4224 230 54.54C230 54.65 230 54.76 230 54.87C232.5 106.76 215.64 188.49 136.54 249.01C131.426 252.951 125.212 255.201 118.76 255.448C112.309 255.695 105.941 253.928 100.54 250.39C59.06 222.88 27.43 191.89 28.74 144.5C28.9347 138.437 30.3532 132.476 32.9103 126.975C35.4674 121.474 39.1103 116.547 43.62 112.49V112.49Z" fill="white"/>
<path d="M144.55 69.27C144.55 69.27 136.06 83.82 120.26 86.33C117.21 92.82 108.55 105.21 127.26 128.75C134.47 128.05 155.73 127.75 155.73 127.75C155.73 127.75 154.66 103.09 150.44 94.59C158.44 95.84 164.2 96.73 166.2 100.03C168.2 103.33 182.2 199.77 182.2 199.77L129.52 212L125.18 244.12C125.18 244.12 106.08 226 108.52 193.89C105.52 194.02 96.84 188.57 96.84 188.57C96.84 188.57 81 212.75 82.73 236.73C83.73 244.73 70.9 228.14 70.9 228.14L68.56 211.24L65.25 180.24L39.51 177.11L35.38 156.36C35.38 156.36 53.38 169.49 64.99 169.86C64.86 162.24 68.55 109.78 68.55 109.78L70.23 60.31L78.65 52.67L117.45 38L134.45 34.12L144.56 46.58L148.32 66L144.55 69.27Z" fill="white"/>
<path d="M69.06 223.61C69.06 223.61 77.19 244.74 80.64 244.11C82.6111 239.311 83.6692 234.187 83.76 229L69.06 223.61Z" fill="white"/>
<path opacity="0.3" d="M179.36 140.72L179.78 139.04L172.19 139.42L179.36 140.72Z" fill="#33BACF"/>
<path opacity="0.3" d="M80.61 160.94C80.61 160.94 74.5 144.28 87.69 162.94C95.56 174.08 105.78 175.83 112.56 177.94C117.36 169.94 130.56 152.43 153.86 151.42C155.04 146.36 155.34 137.22 155.71 134.8C146.71 132.2 127.25 135.69 120.51 136.39C120.01 136.45 119.78 135.76 120.11 135.39C121.44 133.93 123.69 131.02 124.29 130.57C122.16 121.85 120.29 121.44 120.29 121.44L92.49 126.86L68.59 126.18L66.92 139C66.92 139 67.56 139.09 68.71 139.21L70.9 164.49C70.9 164.49 72.65 217 83 237.74C85.08 225.24 88.79 197.38 96.89 188.55C92.12 187.32 81.84 169 80.61 160.94Z" fill="#33BACF"/>
<path d="M67.66 170.85L87.56 170.44L107.38 170.85L114.79 174.02L112.04 179.62L102.38 177.18C102.38 177.18 86.23 176.18 85.73 176.27C85.23 176.36 65.32 178.18 65.32 178.18L67.66 170.85Z" fill="white"/>
<path d="M89.64 132.92L93.57 136.21L92.47 147.79L85.11 148.19L89.64 132.92Z" fill="white"/>
<path d="M90.87 134.22L89.64 147.79L99.64 145.51L90.87 134.22Z" fill="#33BACF"/>
<path d="M220.53 112.47C228.37 129.977 232.131 149.037 231.53 168.21C231.016 185.864 228.383 203.393 223.69 220.42L220.5 223.42L212.8 215.33L196.43 220.23L189.61 236.64L183.73 234.19L177.36 227.33L174.24 225.12H163.91L159 241.5H155.26L150.4 235.12L146.49 211.12L185.21 168.47L220.53 112.47Z" fill="white"/>
<path d="M125.19 244.11C125.19 244.11 109.5 210.37 121.26 189.29C133.02 168.21 155.78 160.85 158.38 160.97C160.98 161.09 164.12 113.05 158.38 96.88C168.57 102.52 164.89 100.55 164.89 100.55C164.89 100.55 187.59 90.75 192.89 91C195.49 86.7326 197.827 82.3111 199.89 77.76L205.73 83.61L211.66 98.61C211.66 98.61 231.43 125.61 230.25 158.42C229.923 179.671 227.318 200.825 222.48 221.52C221.95 223.86 217.41 220.15 217.41 220.15L212.78 215.28L196.41 220.19L189.6 236.61L182.12 232.82L174.22 225.09H163.91L159 241.49L153.12 239.77L146.5 225.67L134.97 224.87L125.19 244.11Z" fill="#FFCE49"/>
<path d="M36.58 159.64L26.41 144.64L21.34 133.82L16.93 128.82L7.92999 129.96C7.92999 129.96 2.69999 135.81 2.36999 136.65C2.03999 137.49 2.36999 152.36 2.36999 152.36L11.85 166.9L26.56 177.76L43.72 181.93L48.45 171.79L36.58 159.64Z" fill="white"/>
<path d="M2.86997 148.6C2.86997 148.6 3.86997 125.77 14.64 142.09C25.41 158.41 38 173.36 58.2 174.83C78.4 176.3 106.73 171.96 110.44 177.68C109.78 182.97 108.51 184.14 108.51 184.14C108.51 184.14 92.83 175.65 54.84 181.86C29.1 184.63 1.39997 162.33 2.86997 148.6Z" fill="#FFCE49"/>
<path d="M73.79 57.51C73.79 57.51 119.88 32.17 135.89 36.42C145.2 43.11 153.37 60.61 144.55 69.27C139.48 76.62 126.55 83.48 123.79 85.45C120 89.53 93.9 109.3 93.9 109.3C93.9 109.3 66.76 101 66.11 100.15C65.46 99.3 62.19 74 62.19 74L73.79 57.51Z" fill="white"/>
<path opacity="0.3" d="M116.41 77.76C132.65 65.99 124.53 45.66 113.64 46.59C95.28 52.51 70.9 62.22 70.9 62.22V98.6L68.56 126.22L83.71 129.14C95.5317 127.059 107.171 124.05 118.52 120.14C114.05 103.65 115.94 90.67 125.68 84.14C129.695 82.6848 133.419 80.528 136.68 77.77C136.63 77.73 121.55 78.54 116.41 77.76Z" fill="#33BACF"/>
<path d="M125 245.58C124.4 245.581 123.806 245.463 123.253 245.231C122.7 244.999 122.199 244.659 121.78 244.23C118.92 241.32 104.78 225 106.47 190.09C106.47 173.8 125.7 152.9 151.67 148.72C152.94 143 157.33 119.91 150.29 101.3L150.23 101.12L148.76 95.78C148.566 95.0759 148.66 94.3238 149.02 93.6884C149.38 93.053 149.977 92.5862 150.68 92.39C150.902 92.3316 151.13 92.298 151.36 92.29C154.02 92.254 156.66 92.7583 159.12 93.7725C161.58 94.7866 163.808 96.2895 165.67 98.19C171.43 95.08 186.05 88.88 193.32 88.46C194.752 84.526 195.981 80.5207 197 76.46C197.103 76.0445 197.287 75.6535 197.541 75.3093C197.796 74.9651 198.116 74.6746 198.483 74.4544C198.85 74.2342 199.257 74.0886 199.68 74.0261C200.103 73.9635 200.535 73.9853 200.95 74.09C201.522 74.2296 202.044 74.5236 202.46 74.94C205.46 77.94 208.69 84.66 211.95 94.5C212.42 95.19 212.95 95.94 213.52 96.76C220.82 107.07 236 128.52 232.59 183.12C231.236 196.689 228.529 210.089 224.51 223.12C224.304 223.711 223.952 224.24 223.486 224.657C223.019 225.074 222.455 225.366 221.845 225.505C221.235 225.643 220.6 225.625 219.999 225.451C219.398 225.277 218.851 224.953 218.41 224.51C216.372 222.406 214.443 220.2 212.63 217.9C209.45 218.74 201.4 220.83 196.94 221.6C195.77 226.382 194.328 231.093 192.62 235.71C192.375 236.387 191.977 236.999 191.456 237.497C190.936 237.995 190.308 238.365 189.62 238.58C188.939 238.798 188.217 238.854 187.511 238.745C186.804 238.635 186.133 238.363 185.55 237.95C181.268 234.849 177.627 230.947 174.83 226.46C167.09 226.6 143.26 225.76 135.02 224.87C134.23 231.39 131.91 239.43 128.55 243.82C128.158 244.33 127.662 244.75 127.095 245.052C126.527 245.353 125.902 245.53 125.26 245.57L125 245.58ZM154.18 99.92C162.64 122.47 155.64 149.92 155.34 151.09C155.238 151.49 155.019 151.85 154.711 152.125C154.402 152.399 154.019 152.575 153.61 152.63C129.38 155.92 110.61 175.52 110.61 190.19C108.93 224.19 123.11 239.67 124.74 241.33C124.812 241.4 124.909 241.44 125.01 241.44C125.056 241.437 125.1 241.424 125.14 241.402C125.18 241.379 125.214 241.348 125.24 241.31C128.35 237.25 130.65 228.5 131.08 222.39C131.098 222.118 131.169 221.852 131.29 221.608C131.411 221.363 131.579 221.145 131.784 220.966C131.989 220.787 132.228 220.65 132.487 220.563C132.745 220.476 133.018 220.441 133.29 220.46C133.485 220.47 133.677 220.51 133.86 220.58C136.69 221.25 167.86 222.66 175.86 222.3C176.233 222.28 176.605 222.363 176.934 222.539C177.264 222.716 177.539 222.979 177.73 223.3C180.323 227.721 183.798 231.561 187.94 234.58C188.001 234.626 188.072 234.656 188.146 234.668C188.221 234.68 188.298 234.674 188.37 234.65C188.453 234.624 188.53 234.579 188.592 234.518C188.655 234.458 188.702 234.383 188.73 234.3C190.543 229.4 192.043 224.39 193.22 219.3C193.311 218.879 193.532 218.498 193.851 218.209C194.171 217.92 194.572 217.739 195 217.69C199.39 217.16 212.76 213.56 212.9 213.52C213.297 213.412 213.718 213.424 214.108 213.556C214.498 213.688 214.84 213.933 215.09 214.26C215.09 214.26 218 218.06 220.84 221.01C224.571 208.537 227.122 195.74 228.46 182.79C231.77 129.79 217.16 109.1 210.14 99.18C209.47 98.23 208.86 97.37 208.34 96.59C208.234 96.4369 208.153 96.2682 208.1 96.09C204.83 86.16 202.24 81.42 200.6 79.17C199.512 83.2751 198.21 87.3206 196.7 91.29C196.534 91.7142 196.235 92.0727 195.847 92.311C195.459 92.5493 195.003 92.6543 194.55 92.61C189.33 92.09 171.55 99.28 166.37 102.61C165.939 102.885 165.421 102.991 164.916 102.91C164.411 102.829 163.954 102.566 163.63 102.17C162.368 100.591 160.803 99.28 159.027 98.3132C157.252 97.3465 155.301 96.7437 153.29 96.54L154.18 99.92ZM133.86 220.58H133.96H133.86Z" fill="#123546"/>
<path d="M194.88 169.6C188.089 169.561 181.351 168.399 174.94 166.16C165.499 162.892 156.775 157.84 149.24 151.28C148.589 150.641 148.213 149.773 148.192 148.86C148.172 147.948 148.508 147.064 149.13 146.396C149.752 145.728 150.611 145.33 151.522 145.286C152.434 145.242 153.326 145.555 154.01 146.16V146.16C160.9 152.08 168.846 156.647 177.43 159.62C195.64 165.8 212.68 162.55 228.08 149.99C228.426 149.669 228.833 149.421 229.277 149.261C229.721 149.102 230.193 149.033 230.664 149.061C231.136 149.088 231.596 149.21 232.019 149.42C232.442 149.63 232.818 149.924 233.124 150.283C233.43 150.642 233.661 151.059 233.802 151.51C233.943 151.96 233.991 152.434 233.944 152.904C233.897 153.373 233.755 153.829 233.528 154.242C233.3 154.656 232.992 155.019 232.62 155.31L232.51 155.41C219.37 166.12 206.3 169.6 194.88 169.6Z" fill="#123546"/>
<path d="M198.03 184.73C202.31 184.73 205.78 181.26 205.78 176.98C205.78 172.7 202.31 169.23 198.03 169.23C193.75 169.23 190.28 172.7 190.28 176.98C190.28 181.26 193.75 184.73 198.03 184.73Z" fill="white"/>
<path d="M203.73 185.76C207.916 185.76 211.31 182.366 211.31 178.18C211.31 173.994 207.916 170.6 203.73 170.6C199.544 170.6 196.15 173.994 196.15 178.18C196.15 182.366 199.544 185.76 203.73 185.76Z" fill="#33BACF"/>
<path d="M157.16 244.12C156.589 244.118 156.028 243.97 155.53 243.69C148.88 239.94 144.88 225.75 144.45 224.14C144.35 223.869 144.308 223.58 144.325 223.292C144.343 223.004 144.421 222.722 144.553 222.465C144.686 222.209 144.87 221.983 145.095 221.801C145.32 221.62 145.58 221.487 145.859 221.412C146.138 221.337 146.43 221.32 146.715 221.364C147.001 221.407 147.274 221.51 147.518 221.665C147.762 221.82 147.97 222.024 148.131 222.264C148.291 222.505 148.4 222.776 148.45 223.06C149.45 226.76 152.83 236.55 156.91 239.64C159.618 234.812 161.348 229.497 162 224C162.069 223.452 162.353 222.955 162.789 222.616C163.225 222.278 163.777 222.126 164.325 222.195C164.873 222.264 165.371 222.548 165.709 222.984C166.048 223.42 166.199 223.972 166.13 224.52C165.4 230.39 162.95 238.52 159.7 242.83C159.403 243.224 159.02 243.546 158.579 243.769C158.139 243.993 157.654 244.113 157.16 244.12V244.12Z" fill="#123546"/>
<path d="M108.36 186.57C107.851 186.56 107.364 186.356 107 186C103.46 182.71 98.72 180.2 76.47 182.87C56.14 185.3 29.27 183.76 14.84 172.13C4.90999 164.13 -1.90001 147 0.549989 136.13C0.915723 133.884 1.93498 131.796 3.48047 130.126C5.02596 128.456 7.02919 127.278 9.23999 126.74C18.76 124.49 20.91 128.98 23.89 135.21C26.9652 142.205 31.3007 148.574 36.68 154C52.1 169.57 67.18 169 84.68 168.29C86.6 168.21 88.53 168.13 90.48 168.08C110.48 167.51 115.36 171.84 115.86 172.33C116.258 172.713 116.487 173.239 116.497 173.791C116.508 174.343 116.298 174.877 115.915 175.275C115.725 175.472 115.499 175.63 115.248 175.739C114.997 175.848 114.727 175.907 114.454 175.912C113.902 175.923 113.368 175.713 112.97 175.33C112.77 175.17 108.2 171.76 90.6 172.24L84.85 172.44C67.17 173.14 50.47 173.8 33.77 156.92C28.0266 151.201 23.3918 144.467 20.1 137.06C17.1 130.83 16.41 129.36 10.1 130.84C8.64714 131.201 7.33675 131.991 6.33963 133.108C5.34252 134.225 4.70493 135.616 4.50999 137.1C2.39999 146.43 8.63999 161.88 17.36 168.9C30.79 179.72 57.28 180.97 75.88 178.75C97.71 176.13 104.62 178.21 109.74 182.96C110.045 183.245 110.257 183.615 110.349 184.022C110.441 184.43 110.408 184.855 110.255 185.243C110.102 185.632 109.835 185.965 109.49 186.2C109.145 186.435 108.737 186.56 108.32 186.56L108.36 186.57Z" fill="#123546"/>
<path d="M179.78 120.11C181.1 120.11 182.17 119.04 182.17 117.72C182.17 116.4 181.1 115.33 179.78 115.33C178.46 115.33 177.39 116.4 177.39 117.72C177.39 119.04 178.46 120.11 179.78 120.11Z" fill="#123546"/>
<path d="M205.78 113.03C207.1 113.03 208.17 111.96 208.17 110.64C208.17 109.32 207.1 108.25 205.78 108.25C204.46 108.25 203.39 109.32 203.39 110.64C203.39 111.96 204.46 113.03 205.78 113.03Z" fill="#123546"/>
<path d="M186.74 135C185.39 135.008 184.064 134.637 182.913 133.93C181.763 133.223 180.833 132.208 180.23 131C180.076 130.649 180.065 130.252 180.199 129.892C180.334 129.533 180.604 129.241 180.951 129.078C181.298 128.915 181.695 128.894 182.057 129.02C182.419 129.145 182.718 129.407 182.89 129.75C183.204 130.337 183.647 130.844 184.185 131.234C184.724 131.624 185.345 131.886 186 132C188 132.3 191.61 131.43 197.33 125.46C197.57 125.204 197.894 125.043 198.243 125.006C198.592 124.969 198.942 125.059 199.23 125.26C201.59 126.91 206.83 128.38 208.96 126.96C209.85 126.37 210.09 125.14 209.69 123.29C209.621 122.915 209.7 122.528 209.911 122.21C210.122 121.893 210.448 121.669 210.82 121.588C211.193 121.506 211.582 121.572 211.907 121.772C212.232 121.972 212.466 122.291 212.56 122.66C213.42 126.58 211.97 128.5 210.56 129.41C207.24 131.63 201.64 129.98 198.56 128.33C194.19 132.73 190.2 135 186.74 135Z" fill="#123546"/>
<path d="M216.34 118.73C216.001 118.732 215.672 118.617 215.408 118.404C215.144 118.191 214.962 117.893 214.893 117.561C214.823 117.229 214.871 116.884 215.027 116.583C215.183 116.282 215.439 116.044 215.75 115.91C216.21 115.72 227.01 110.91 234.61 110.37C234.806 110.348 235.005 110.367 235.194 110.423C235.383 110.48 235.558 110.574 235.71 110.7C235.862 110.827 235.987 110.982 236.077 111.157C236.167 111.333 236.222 111.524 236.236 111.721C236.251 111.918 236.226 112.116 236.163 112.303C236.1 112.489 235.999 112.662 235.868 112.809C235.737 112.956 235.577 113.076 235.399 113.16C235.221 113.244 235.027 113.292 234.83 113.3C227.74 113.83 217.06 118.55 216.95 118.6C216.757 118.683 216.55 118.727 216.34 118.73V118.73Z" fill="#123546"/>
<path d="M218.93 126.54C218.549 126.555 218.177 126.422 217.893 126.169C217.608 125.915 217.433 125.561 217.405 125.181C217.376 124.801 217.496 124.425 217.74 124.132C217.983 123.839 218.331 123.652 218.71 123.61C219.2 123.54 230.87 121.77 238.36 123.23C238.743 123.304 239.081 123.528 239.3 123.851C239.518 124.175 239.599 124.572 239.525 124.955C239.451 125.338 239.227 125.676 238.904 125.895C238.58 126.113 238.183 126.194 237.8 126.12V126.12C230.8 124.76 219.27 126.51 219.15 126.51L218.93 126.54Z" fill="#123546"/>
<path d="M197.48 124.6C197.48 124.6 185.91 120.6 196.07 118.11C200.73 117.62 205.44 118.1 197.48 124.6Z" fill="#123546"/>
<path d="M149.41 129.42C149.02 129.42 148.646 129.265 148.371 128.989C148.095 128.714 147.94 128.34 147.94 127.95C147.942 127.643 148.039 127.345 148.219 127.096C148.398 126.847 148.65 126.659 148.94 126.56C156.74 123.89 171.59 125.33 172.21 125.38C172.402 125.398 172.589 125.454 172.76 125.545C172.931 125.636 173.082 125.759 173.205 125.908C173.328 126.057 173.42 126.229 173.477 126.414C173.534 126.599 173.553 126.793 173.535 126.985C173.517 127.177 173.461 127.364 173.37 127.535C173.279 127.706 173.156 127.857 173.007 127.98C172.858 128.103 172.686 128.195 172.501 128.252C172.317 128.309 172.122 128.328 171.93 128.31C171.78 128.31 157.09 126.87 149.93 129.31C149.764 129.375 149.588 129.412 149.41 129.42V129.42Z" fill="#123546"/>
<path d="M151 142.51C150.68 142.511 150.368 142.408 150.111 142.216C149.855 142.024 149.669 141.753 149.581 141.445C149.492 141.137 149.507 140.809 149.622 140.51C149.738 140.211 149.948 139.959 150.22 139.79C157.22 135.44 172.02 133.53 172.64 133.45C173.012 133.428 173.379 133.548 173.666 133.786C173.953 134.024 174.139 134.362 174.186 134.732C174.233 135.102 174.138 135.476 173.919 135.778C173.701 136.08 173.376 136.288 173.01 136.36C172.87 136.36 158.23 138.28 151.77 142.29C151.538 142.432 151.272 142.508 151 142.51Z" fill="#123546"/>
<path d="M126.87 130.69C126.538 130.69 126.211 130.61 125.917 130.457C125.623 130.304 125.37 130.082 125.18 129.81C120.18 122.81 113.51 114.16 113.77 105.07V104.44C114 96.0001 114.27 87.2801 124 82.6701C132.69 78.5701 139.07 75.2001 142 69.2201C142.226 68.7381 142.628 68.3611 143.124 68.1667C143.62 67.9724 144.171 67.9755 144.664 68.1754C145.158 68.3754 145.556 68.7569 145.776 69.2414C145.997 69.726 146.023 70.2767 145.85 70.7801C145.821 70.8635 145.785 70.9439 145.74 71.0201C142.27 78.2201 134.99 82.1101 125.82 86.4301C118.37 89.9501 118.19 96.4301 117.97 104.56V105.19C117.76 112.57 123.4 119.53 127.9 126.37C137.269 125.151 146.736 124.869 156.16 125.53C156.708 125.595 157.209 125.875 157.551 126.308C157.894 126.74 158.052 127.291 157.99 127.84C157.93 128.368 157.668 128.852 157.261 129.193C156.853 129.533 156.33 129.704 155.8 129.67C146.264 129.022 136.687 129.357 127.22 130.67L126.87 130.69Z" fill="#123546"/>
<path d="M142.27 71.7701C139.074 71.5645 135.981 70.5642 133.27 68.8601C132.828 68.5558 132.521 68.0927 132.413 67.5674C132.304 67.0421 132.403 66.4952 132.688 66.041C132.973 65.5867 133.423 65.2601 133.943 65.1295C134.463 64.9989 135.014 65.0744 135.48 65.3401C137.01 66.3401 141.9 68.6601 144.31 67.1001C146.08 65.9501 146.65 62.4001 145.91 57.1001C144.65 47.9701 137.91 39.6601 137.84 39.5801C137.517 39.1517 137.373 38.6153 137.436 38.0829C137.5 37.5505 137.766 37.0631 138.18 36.7225C138.595 36.382 139.124 36.2145 139.659 36.255C140.194 36.2955 140.692 36.5409 141.05 36.9401C141.36 37.3101 148.6 46.2201 150.05 56.5301C151.05 63.8301 149.93 68.4301 146.58 70.5901C145.291 71.3991 143.791 71.8096 142.27 71.7701V71.7701Z" fill="#123546"/>
<path d="M117.87 80.74C113.357 80.6548 108.901 79.7254 104.73 78C104.249 77.7645 103.877 77.3525 103.692 76.8497C103.507 76.3469 103.524 75.7921 103.738 75.301C103.952 74.8099 104.347 74.4203 104.841 74.2133C105.335 74.0063 105.89 73.998 106.39 74.19C106.56 74.26 119.25 79.65 126.85 73.97C132.09 70.03 133.95 61.61 132.35 48.92C132.281 48.3724 132.432 47.8197 132.771 47.3837C133.109 46.9477 133.607 46.664 134.155 46.595C134.703 46.5261 135.255 46.6775 135.691 47.016C136.127 47.3545 136.411 47.8524 136.48 48.4C138.28 62.69 135.87 72.4 129.33 77.31C125.987 79.6733 121.962 80.8779 117.87 80.74V80.74Z" fill="#123546"/>
<path d="M134.34 47.87C132.444 48.4086 130.451 48.5112 128.51 48.17C126.306 47.9593 124.169 47.299 122.23 46.23C121.475 45.9029 120.798 45.4177 120.246 44.807C119.694 44.1964 119.279 43.4745 119.03 42.69C118.721 42.0707 118.554 41.3901 118.542 40.698C118.53 40.0058 118.673 39.3198 118.96 38.69C120.79 36.03 124.51 34.58 127.48 33.69C129.891 32.9505 132.398 32.5698 134.92 32.56C136.322 32.5018 137.704 32.9097 138.85 33.72C139.535 34.3478 140.066 35.1262 140.399 35.9939C140.732 36.8616 140.859 37.7948 140.77 38.72C140.313 41.2872 139.288 43.7198 137.77 45.84C137.293 46.5475 136.645 47.1228 135.887 47.5127C135.128 47.9026 134.283 48.0943 133.43 48.07" fill="#123546"/>
<path d="M93.9 62.24C95.5237 62.24 96.84 60.9237 96.84 59.3C96.84 57.6763 95.5237 56.36 93.9 56.36C92.2762 56.36 90.96 57.6763 90.96 59.3C90.96 60.9237 92.2762 62.24 93.9 62.24Z" fill="#123546"/>
<path d="M83.7 50.39C83.7 50.39 83.88 5.00003 105.56 0.780031C127.24 -3.43997 135.32 10.7 132.94 12.78C130.56 14.86 103.36 29.13 93.94 46.78C90.7884 48.626 87.3125 49.8514 83.7 50.39V50.39Z" fill="#123546"/>
<path d="M77.15 56.05C76.6674 56.0547 76.1982 55.8914 75.8228 55.5882C75.4473 55.2849 75.189 54.8606 75.0921 54.3878C74.9952 53.915 75.0657 53.4233 75.2915 52.9968C75.5174 52.5703 75.8845 52.2355 76.33 52.05C77.94 51.37 115.76 35.24 128.71 32.9C129.242 32.8265 129.781 32.9613 130.216 33.2762C130.65 33.5912 130.946 34.0619 131.042 34.5901C131.137 35.1182 131.025 35.6628 130.728 36.11C130.432 36.5573 129.974 36.8726 129.45 36.99C117 39.26 78.35 55.72 78 55.88C77.7325 55.9981 77.4423 56.0561 77.15 56.05V56.05Z" fill="#123546"/>
<path d="M79.49 53C79.49 53 73.69 65.92 75.56 108.07C75.6306 109.551 75.1816 111.01 74.2905 112.195C73.3995 113.38 72.1224 114.217 70.68 114.56C62.6584 116.285 54.3617 116.285 46.34 114.56C44.8032 114.235 43.4415 113.351 42.5181 112.081C41.5946 110.81 41.1749 109.242 41.34 107.68C43.14 90.3801 48.86 41.94 79.49 53Z" fill="#123546"/>
<path d="M80.45 246.68C79.8858 246.686 79.3269 246.572 78.8099 246.346C78.2928 246.12 77.8294 245.788 77.45 245.37C68.12 235.3 63.36 214.48 62.89 181.72C62.8818 181.178 63.0868 180.654 63.4608 180.261C63.8348 179.869 64.348 179.638 64.89 179.62V179.62C65.4281 179.62 65.9454 179.828 66.3332 180.201C66.7211 180.574 66.9493 181.082 66.97 181.62C67.41 212.28 71.78 232.62 79.97 241.98C80.97 235.27 86.9 195.16 94.63 187.16C94.8198 186.963 95.0465 186.805 95.2972 186.696C95.5479 186.587 95.8176 186.528 96.0911 186.523C96.3646 186.517 96.6364 186.566 96.891 186.666C97.1456 186.766 97.378 186.915 97.575 187.105C97.772 187.295 97.9297 187.521 98.039 187.772C98.1484 188.023 98.2073 188.293 98.2124 188.566C98.2175 188.84 98.1687 189.111 98.0688 189.366C97.9689 189.621 97.8198 189.853 97.63 190.05C92.19 195.68 86.49 225.05 83.97 243.43C83.8829 244.118 83.6 244.766 83.1551 245.298C82.7101 245.83 82.1218 246.223 81.46 246.43C81.1362 246.559 80.7964 246.643 80.45 246.68V246.68Z" fill="#123546"/>
<path d="M65 171.71C64.4571 171.689 63.9439 171.457 63.5702 171.063C63.1964 170.668 62.9918 170.143 63 169.6V169.6C63.3375 151.107 64.6124 132.644 66.82 114.28C66.8548 114.009 66.9427 113.747 67.0786 113.51C67.2145 113.273 67.3958 113.065 67.6122 112.898C67.8286 112.73 68.0757 112.607 68.3396 112.536C68.6034 112.464 68.8788 112.445 69.15 112.48C69.4212 112.515 69.6828 112.603 69.9201 112.739C70.1573 112.875 70.3654 113.056 70.5326 113.272C70.6997 113.489 70.8226 113.736 70.8942 114C70.9658 114.264 70.9848 114.539 70.95 114.81C68.7612 133.018 67.4995 151.324 67.17 169.66C67.1649 169.938 67.1044 170.212 66.992 170.466C66.8796 170.721 66.7177 170.95 66.5156 171.141C66.3135 171.332 66.0754 171.48 65.8152 171.578C65.5549 171.676 65.2778 171.721 65 171.71Z" fill="#123546"/>
<path d="M108.36 196.87C108.15 196.867 107.941 196.833 107.74 196.77C99.1869 193.973 91.8019 188.42 86.74 180.98C86.4436 180.531 86.3326 179.985 86.4305 179.456C86.5284 178.927 86.8275 178.456 87.2649 178.143C87.7024 177.83 88.2442 177.698 88.7766 177.776C89.3089 177.854 89.7904 178.135 90.12 178.56C94.6653 185.264 101.305 190.272 109 192.8C109.478 192.945 109.888 193.258 110.155 193.681C110.421 194.104 110.526 194.609 110.451 195.103C110.376 195.598 110.125 196.048 109.745 196.373C109.364 196.697 108.88 196.874 108.38 196.87H108.36Z" fill="#123546"/>
<path d="M83 172.52C82.6031 172.522 82.2142 172.409 81.8805 172.194C81.5468 171.979 81.2826 171.672 81.12 171.31C78.8145 166.368 77.1348 161.158 76.12 155.8C76.0667 155.272 76.217 154.744 76.5402 154.324C76.8635 153.903 77.3352 153.622 77.8589 153.537C78.3826 153.453 78.9187 153.572 79.3576 153.87C79.7965 154.168 80.105 154.622 80.22 155.14C81.1891 160.122 82.7607 164.968 84.9 169.57C85.0163 169.817 85.0827 170.084 85.0954 170.357C85.1081 170.629 85.0668 170.902 84.9738 171.158C84.8809 171.414 84.7382 171.65 84.5539 171.851C84.3696 172.052 84.1474 172.215 83.9 172.33C83.6279 172.458 83.3306 172.523 83.03 172.52H83Z" fill="#123546"/>
<path d="M85.67 133.79C71.3 133.79 63.58 128.57 63.05 128.21C61.9893 127.409 61.2794 126.229 61.0688 124.916C60.8583 123.604 61.1633 122.261 61.9202 121.168C62.6771 120.075 63.8272 119.318 65.1299 119.053C66.4327 118.789 67.7871 119.039 68.91 119.75C69.69 120.27 86.61 130.98 119.75 114.02C120.957 113.465 122.331 113.398 123.587 113.832C124.842 114.267 125.881 115.17 126.486 116.352C127.091 117.534 127.216 118.905 126.835 120.177C126.454 121.45 125.596 122.525 124.44 123.18V123.18C108.5 131.34 95.52 133.79 85.67 133.79Z" fill="#123546"/>
<path d="M85.23 149.71C84.8401 149.71 84.4662 149.555 84.1906 149.279C83.9149 149.004 83.76 148.63 83.76 148.24C83.7596 148.108 83.7798 147.976 83.82 147.85L88.34 131.68C88.4492 131.309 88.7006 130.995 89.0395 130.808C89.3783 130.621 89.7774 130.575 90.15 130.68C90.4649 130.77 90.7422 130.959 90.94 131.22L100.88 144.61C101.031 144.809 101.129 145.043 101.164 145.29C101.198 145.537 101.169 145.789 101.079 146.022C100.989 146.255 100.84 146.46 100.648 146.619C100.456 146.778 100.226 146.885 99.98 146.93L85.51 149.71H85.23ZM90.37 135.35L87.29 146.35L97.12 144.46L90.37 135.35Z" fill="#123546"/>
<path d="M198.03 184.73C202.31 184.73 205.78 181.26 205.78 176.98C205.78 172.7 202.31 169.23 198.03 169.23C193.75 169.23 190.28 172.7 190.28 176.98C190.28 181.26 193.75 184.73 198.03 184.73Z" fill="white"/>
<path d="M203.73 185.76C207.916 185.76 211.31 182.366 211.31 178.18C211.31 173.994 207.916 170.6 203.73 170.6C199.544 170.6 196.15 173.994 196.15 178.18C196.15 182.366 199.544 185.76 203.73 185.76Z" fill="#33BACF"/>
<path d="M198 186.72C196.072 186.72 194.187 186.148 192.583 185.077C190.98 184.005 189.73 182.483 188.992 180.701C188.254 178.92 188.061 176.959 188.437 175.068C188.814 173.177 189.742 171.439 191.106 170.076C192.469 168.712 194.207 167.784 196.098 167.407C197.989 167.031 199.95 167.224 201.731 167.962C203.513 168.7 205.035 169.95 206.107 171.553C207.178 173.157 207.75 175.042 207.75 176.97C207.753 178.251 207.502 179.52 207.013 180.704C206.524 181.888 205.806 182.964 204.9 183.87C203.994 184.776 202.918 185.494 201.734 185.983C200.55 186.472 199.281 186.723 198 186.72V186.72ZM198 171.22C196.863 171.22 195.751 171.557 194.805 172.189C193.86 172.821 193.123 173.719 192.688 174.77C192.252 175.82 192.139 176.976 192.36 178.092C192.582 179.207 193.13 180.232 193.934 181.036C194.738 181.84 195.763 182.388 196.878 182.609C197.994 182.831 199.15 182.717 200.2 182.282C201.251 181.847 202.149 181.11 202.781 180.165C203.413 179.219 203.75 178.107 203.75 176.97C203.75 175.445 203.144 173.982 202.066 172.904C200.988 171.826 199.525 171.22 198 171.22V171.22Z" fill="#123546"/>
<path d="M260.006 236.464C260.369 236.464 260.68 236.581 260.938 236.815C261.195 237.044 261.324 237.363 261.324 237.773C261.324 238.137 261.192 238.447 260.929 238.705C260.665 238.963 260.352 239.092 259.988 239.092C259.66 239.092 259.358 238.954 259.083 238.679C258.808 238.403 258.67 238.102 258.67 237.773C258.67 237.357 258.799 237.035 259.057 236.807C259.32 236.578 259.637 236.464 260.006 236.464ZM260.946 242.238L261.245 246.466C261.298 247.31 261.324 247.893 261.324 248.215C261.324 248.707 261.198 249.091 260.946 249.366C260.7 249.642 260.363 249.779 259.936 249.779C259.449 249.779 259.115 249.604 258.934 249.252C258.758 248.9 258.67 248.394 258.67 247.731C258.67 247.403 258.69 247.02 258.731 246.58L259.109 242.238C259.15 241.717 259.235 241.318 259.364 241.043C259.493 240.762 259.713 240.621 260.023 240.621C260.34 240.621 260.562 240.762 260.691 241.043C260.82 241.318 260.905 241.717 260.946 242.238ZM269.401 240.981H267.011V244.629C267.011 245.15 266.888 245.546 266.642 245.815C266.396 246.085 266.085 246.22 265.71 246.22C265.317 246.22 265.001 246.088 264.761 245.824C264.521 245.555 264.4 245.162 264.4 244.646V234.715C264.4 234.141 264.532 233.73 264.796 233.484C265.06 233.238 265.479 233.115 266.053 233.115H269.401C270.392 233.115 271.153 233.191 271.687 233.344C272.214 233.49 272.668 233.733 273.049 234.073C273.436 234.413 273.729 234.829 273.928 235.321C274.127 235.813 274.227 236.367 274.227 236.982C274.227 238.295 273.822 239.291 273.014 239.971C272.205 240.645 271.001 240.981 269.401 240.981ZM268.769 235.075H267.011V239.013H268.769C269.384 239.013 269.896 238.948 270.307 238.819C270.723 238.69 271.039 238.479 271.256 238.187C271.473 237.894 271.581 237.51 271.581 237.035C271.581 236.467 271.414 236.004 271.08 235.646C270.705 235.266 269.935 235.075 268.769 235.075ZM278.621 242.757V244.761C278.621 245.247 278.507 245.613 278.278 245.859C278.05 246.1 277.76 246.22 277.408 246.22C277.062 246.22 276.778 246.097 276.556 245.851C276.333 245.604 276.222 245.241 276.222 244.761V238.081C276.222 237.003 276.611 236.464 277.391 236.464C277.789 236.464 278.076 236.59 278.252 236.842C278.428 237.094 278.524 237.466 278.542 237.958C278.829 237.466 279.122 237.094 279.421 236.842C279.726 236.59 280.13 236.464 280.634 236.464C281.138 236.464 281.627 236.59 282.102 236.842C282.576 237.094 282.813 237.428 282.813 237.844C282.813 238.137 282.711 238.38 282.506 238.573C282.307 238.761 282.09 238.854 281.855 238.854C281.768 238.854 281.554 238.802 281.214 238.696C280.88 238.585 280.584 238.529 280.326 238.529C279.975 238.529 279.688 238.623 279.465 238.811C279.242 238.992 279.069 239.265 278.946 239.628C278.823 239.991 278.738 240.425 278.691 240.929C278.645 241.427 278.621 242.036 278.621 242.757ZM292.429 241.342C292.429 242.057 292.317 242.716 292.095 243.319C291.872 243.923 291.55 244.441 291.128 244.875C290.706 245.309 290.202 245.643 289.616 245.877C289.03 246.105 288.371 246.22 287.639 246.22C286.912 246.22 286.259 246.103 285.679 245.868C285.099 245.634 284.595 245.3 284.167 244.866C283.745 244.427 283.423 243.911 283.2 243.319C282.983 242.722 282.875 242.062 282.875 241.342C282.875 240.615 282.986 239.95 283.209 239.347C283.432 238.743 283.751 238.228 284.167 237.8C284.583 237.372 285.087 237.044 285.679 236.815C286.271 236.581 286.924 236.464 287.639 236.464C288.365 236.464 289.024 236.581 289.616 236.815C290.208 237.05 290.715 237.384 291.137 237.817C291.559 238.251 291.878 238.767 292.095 239.364C292.317 239.962 292.429 240.621 292.429 241.342ZM290.021 241.342C290.021 240.363 289.804 239.602 289.37 239.057C288.942 238.512 288.365 238.239 287.639 238.239C287.17 238.239 286.757 238.362 286.399 238.608C286.042 238.849 285.767 239.206 285.573 239.681C285.38 240.155 285.283 240.709 285.283 241.342C285.283 241.969 285.377 242.517 285.564 242.985C285.758 243.454 286.03 243.814 286.382 244.066C286.739 244.312 287.158 244.436 287.639 244.436C288.365 244.436 288.942 244.163 289.37 243.618C289.804 243.067 290.021 242.309 290.021 241.342ZM294.459 236.675H294.723V235.233C294.723 234.847 294.731 234.545 294.749 234.328C294.772 234.105 294.831 233.915 294.925 233.757C295.019 233.593 295.153 233.461 295.329 233.361C295.505 233.256 295.701 233.203 295.918 233.203C296.223 233.203 296.498 233.317 296.744 233.546C296.908 233.698 297.011 233.886 297.052 234.108C297.099 234.325 297.122 234.636 297.122 235.04V236.675H298.001C298.341 236.675 298.599 236.757 298.774 236.921C298.956 237.079 299.047 237.284 299.047 237.536C299.047 237.858 298.918 238.084 298.66 238.213C298.408 238.342 298.045 238.406 297.57 238.406H297.122V242.818C297.122 243.193 297.134 243.483 297.157 243.688C297.187 243.888 297.257 244.052 297.368 244.181C297.485 244.304 297.673 244.365 297.931 244.365C298.071 244.365 298.262 244.342 298.502 244.295C298.742 244.242 298.93 244.216 299.064 244.216C299.258 244.216 299.431 244.295 299.583 244.453C299.741 244.605 299.82 244.796 299.82 245.024C299.82 245.411 299.609 245.707 299.188 245.912C298.766 246.117 298.159 246.22 297.368 246.22C296.618 246.22 296.05 246.094 295.663 245.842C295.276 245.59 295.021 245.241 294.898 244.796C294.781 244.351 294.723 243.756 294.723 243.012V238.406H294.406C294.061 238.406 293.797 238.324 293.615 238.16C293.434 237.996 293.343 237.788 293.343 237.536C293.343 237.284 293.437 237.079 293.624 236.921C293.817 236.757 294.096 236.675 294.459 236.675ZM307.405 241.931H302.712C302.718 242.476 302.826 242.956 303.037 243.372C303.254 243.788 303.538 244.102 303.89 244.312C304.247 244.523 304.64 244.629 305.067 244.629C305.354 244.629 305.615 244.597 305.85 244.532C306.09 244.462 306.321 244.356 306.544 244.216C306.767 244.069 306.972 243.914 307.159 243.75C307.347 243.586 307.59 243.363 307.889 243.082C308.012 242.977 308.188 242.924 308.416 242.924C308.662 242.924 308.861 242.991 309.014 243.126C309.166 243.261 309.242 243.451 309.242 243.697C309.242 243.914 309.157 244.169 308.987 244.462C308.817 244.749 308.56 245.027 308.214 245.297C307.874 245.561 307.443 245.78 306.922 245.956C306.406 246.132 305.812 246.22 305.138 246.22C303.597 246.22 302.398 245.78 301.543 244.901C300.688 244.022 300.26 242.83 300.26 241.324C300.26 240.615 300.365 239.959 300.576 239.355C300.787 238.746 301.095 238.225 301.499 237.791C301.903 237.357 302.401 237.026 302.993 236.798C303.585 236.563 304.241 236.446 304.962 236.446C305.899 236.446 306.702 236.646 307.37 237.044C308.044 237.437 308.548 237.946 308.882 238.573C309.216 239.2 309.383 239.839 309.383 240.489C309.383 241.093 309.21 241.485 308.864 241.667C308.519 241.843 308.032 241.931 307.405 241.931ZM302.712 240.568H307.062C307.004 239.748 306.781 239.136 306.395 238.731C306.014 238.321 305.51 238.116 304.883 238.116C304.285 238.116 303.793 238.324 303.406 238.74C303.025 239.15 302.794 239.76 302.712 240.568ZM319.991 238.222V245.191C319.991 245.988 319.906 246.674 319.736 247.248C319.566 247.822 319.294 248.297 318.919 248.672C318.544 249.047 318.052 249.325 317.442 249.507C316.839 249.688 316.086 249.779 315.184 249.779C314.357 249.779 313.619 249.662 312.969 249.428C312.318 249.199 311.817 248.9 311.466 248.531C311.114 248.168 310.938 247.793 310.938 247.406C310.938 247.113 311.038 246.873 311.237 246.686C311.437 246.504 311.677 246.413 311.958 246.413C312.31 246.413 312.617 246.568 312.881 246.879C313.01 247.037 313.142 247.195 313.276 247.354C313.417 247.518 313.569 247.655 313.733 247.767C313.903 247.884 314.105 247.969 314.34 248.021C314.574 248.08 314.844 248.109 315.148 248.109C315.77 248.109 316.25 248.021 316.59 247.846C316.936 247.676 317.176 247.436 317.311 247.125C317.451 246.814 317.533 246.48 317.557 246.123C317.58 245.771 317.598 245.203 317.609 244.418C317.24 244.934 316.812 245.326 316.326 245.596C315.846 245.865 315.271 246 314.604 246C313.801 246 313.098 245.795 312.494 245.385C311.896 244.975 311.437 244.4 311.114 243.662C310.792 242.924 310.631 242.071 310.631 241.104C310.631 240.384 310.728 239.733 310.921 239.153C311.12 238.573 311.401 238.084 311.765 237.686C312.128 237.287 312.547 236.988 313.021 236.789C313.496 236.584 314.018 236.481 314.586 236.481C315.266 236.481 315.854 236.613 316.353 236.877C316.851 237.135 317.313 237.542 317.741 238.099V237.773C317.741 237.357 317.844 237.035 318.049 236.807C318.254 236.578 318.518 236.464 318.84 236.464C319.303 236.464 319.61 236.616 319.763 236.921C319.915 237.22 319.991 237.653 319.991 238.222ZM313.039 241.263C313.039 242.235 313.25 242.971 313.672 243.469C314.1 243.967 314.65 244.216 315.324 244.216C315.723 244.216 316.098 244.11 316.449 243.899C316.807 243.683 317.097 243.36 317.319 242.933C317.542 242.499 317.653 241.975 317.653 241.359C317.653 240.381 317.437 239.619 317.003 239.074C316.575 238.529 316.01 238.257 315.307 238.257C314.621 238.257 314.07 238.518 313.654 239.039C313.244 239.561 313.039 240.302 313.039 241.263ZM328.657 241.931H323.964C323.97 242.476 324.078 242.956 324.289 243.372C324.506 243.788 324.79 244.102 325.142 244.312C325.499 244.523 325.892 244.629 326.319 244.629C326.606 244.629 326.867 244.597 327.102 244.532C327.342 244.462 327.573 244.356 327.796 244.216C328.019 244.069 328.224 243.914 328.411 243.75C328.599 243.586 328.842 243.363 329.141 243.082C329.264 242.977 329.439 242.924 329.668 242.924C329.914 242.924 330.113 242.991 330.266 243.126C330.418 243.261 330.494 243.451 330.494 243.697C330.494 243.914 330.409 244.169 330.239 244.462C330.069 244.749 329.812 245.027 329.466 245.297C329.126 245.561 328.695 245.78 328.174 245.956C327.658 246.132 327.063 246.22 326.39 246.22C324.849 246.22 323.65 245.78 322.795 244.901C321.939 244.022 321.512 242.83 321.512 241.324C321.512 240.615 321.617 239.959 321.828 239.355C322.039 238.746 322.347 238.225 322.751 237.791C323.155 237.357 323.653 237.026 324.245 236.798C324.837 236.563 325.493 236.446 326.214 236.446C327.151 236.446 327.954 236.646 328.622 237.044C329.296 237.437 329.8 237.946 330.134 238.573C330.468 239.2 330.635 239.839 330.635 240.489C330.635 241.093 330.462 241.485 330.116 241.667C329.771 241.843 329.284 241.931 328.657 241.931ZM323.964 240.568H328.314C328.256 239.748 328.033 239.136 327.646 238.731C327.266 238.321 326.762 238.116 326.135 238.116C325.537 238.116 325.045 238.324 324.658 238.74C324.277 239.15 324.046 239.76 323.964 240.568ZM343.229 244.866C342.649 245.317 342.087 245.657 341.542 245.886C341.003 246.108 340.396 246.22 339.723 246.22C339.107 246.22 338.565 246.1 338.097 245.859C337.634 245.613 337.276 245.282 337.024 244.866C336.772 244.45 336.646 243.999 336.646 243.513C336.646 242.856 336.854 242.297 337.271 241.834C337.687 241.371 338.258 241.061 338.984 240.902C339.137 240.867 339.515 240.788 340.118 240.665C340.722 240.542 341.237 240.431 341.665 240.331C342.099 240.226 342.567 240.1 343.071 239.953C343.042 239.32 342.913 238.857 342.685 238.564C342.462 238.266 341.996 238.116 341.287 238.116C340.678 238.116 340.218 238.201 339.907 238.371C339.603 238.541 339.339 238.796 339.116 239.136C338.899 239.476 338.744 239.701 338.65 239.812C338.562 239.918 338.369 239.971 338.07 239.971C337.801 239.971 337.566 239.886 337.367 239.716C337.174 239.54 337.077 239.317 337.077 239.048C337.077 238.626 337.227 238.216 337.525 237.817C337.824 237.419 338.29 237.091 338.923 236.833C339.556 236.575 340.344 236.446 341.287 236.446C342.342 236.446 343.171 236.572 343.774 236.824C344.378 237.07 344.803 237.463 345.049 238.002C345.301 238.541 345.427 239.256 345.427 240.146C345.427 240.709 345.424 241.187 345.418 241.579C345.418 241.972 345.415 242.408 345.409 242.889C345.409 243.34 345.482 243.812 345.629 244.304C345.781 244.79 345.857 245.104 345.857 245.244C345.857 245.49 345.74 245.716 345.506 245.921C345.277 246.12 345.017 246.22 344.724 246.22C344.478 246.22 344.234 246.105 343.994 245.877C343.754 245.643 343.499 245.306 343.229 244.866ZM343.071 241.395C342.72 241.523 342.207 241.661 341.533 241.808C340.865 241.948 340.402 242.054 340.145 242.124C339.887 242.188 339.641 242.32 339.406 242.52C339.172 242.713 339.055 242.985 339.055 243.337C339.055 243.7 339.192 244.011 339.468 244.269C339.743 244.521 340.104 244.646 340.549 244.646C341.023 244.646 341.46 244.544 341.858 244.339C342.263 244.128 342.559 243.858 342.746 243.53C342.963 243.167 343.071 242.569 343.071 241.737V241.395ZM352.37 244.761V234.354C352.37 233.874 352.476 233.511 352.687 233.265C352.903 233.019 353.193 232.896 353.557 232.896C353.92 232.896 354.213 233.019 354.436 233.265C354.658 233.505 354.77 233.868 354.77 234.354V244.761C354.77 245.247 354.655 245.613 354.427 245.859C354.204 246.1 353.914 246.22 353.557 246.22C353.205 246.22 352.918 246.094 352.695 245.842C352.479 245.59 352.37 245.229 352.37 244.761ZM366.239 241.342C366.239 242.057 366.128 242.716 365.905 243.319C365.683 243.923 365.36 244.441 364.938 244.875C364.517 245.309 364.013 245.643 363.427 245.877C362.841 246.105 362.182 246.22 361.449 246.22C360.723 246.22 360.069 246.103 359.489 245.868C358.909 245.634 358.405 245.3 357.978 244.866C357.556 244.427 357.233 243.911 357.011 243.319C356.794 242.722 356.686 242.062 356.686 241.342C356.686 240.615 356.797 239.95 357.02 239.347C357.242 238.743 357.562 238.228 357.978 237.8C358.394 237.372 358.897 237.044 359.489 236.815C360.081 236.581 360.734 236.464 361.449 236.464C362.176 236.464 362.835 236.581 363.427 236.815C364.019 237.05 364.525 237.384 364.947 237.817C365.369 238.251 365.688 238.767 365.905 239.364C366.128 239.962 366.239 240.621 366.239 241.342ZM363.831 241.342C363.831 240.363 363.614 239.602 363.181 239.057C362.753 238.512 362.176 238.239 361.449 238.239C360.98 238.239 360.567 238.362 360.21 238.608C359.853 238.849 359.577 239.206 359.384 239.681C359.19 240.155 359.094 240.709 359.094 241.342C359.094 241.969 359.188 242.517 359.375 242.985C359.568 243.454 359.841 243.814 360.192 244.066C360.55 244.312 360.969 244.436 361.449 244.436C362.176 244.436 362.753 244.163 363.181 243.618C363.614 243.067 363.831 242.309 363.831 241.342ZM375.863 243.082C375.863 243.744 375.702 244.312 375.38 244.787C375.058 245.256 374.58 245.613 373.947 245.859C373.32 246.1 372.556 246.22 371.653 246.22C370.792 246.22 370.054 246.088 369.438 245.824C368.823 245.561 368.369 245.232 368.076 244.84C367.783 244.441 367.637 244.043 367.637 243.645C367.637 243.381 367.73 243.155 367.918 242.968C368.105 242.78 368.343 242.687 368.63 242.687C368.882 242.687 369.075 242.748 369.21 242.871C369.345 242.994 369.474 243.167 369.597 243.39C369.843 243.817 370.136 244.137 370.476 244.348C370.821 244.559 371.29 244.664 371.882 244.664C372.362 244.664 372.755 244.559 373.06 244.348C373.37 244.131 373.525 243.885 373.525 243.609C373.525 243.188 373.364 242.88 373.042 242.687C372.726 242.493 372.201 242.309 371.469 242.133C370.643 241.928 369.969 241.714 369.447 241.491C368.932 241.263 368.519 240.964 368.208 240.595C367.897 240.226 367.742 239.771 367.742 239.232C367.742 238.752 367.886 238.298 368.173 237.87C368.46 237.442 368.882 237.103 369.438 236.851C370.001 236.593 370.678 236.464 371.469 236.464C372.09 236.464 372.646 236.528 373.139 236.657C373.637 236.786 374.05 236.959 374.378 237.176C374.712 237.393 374.964 237.633 375.134 237.896C375.31 238.16 375.397 238.418 375.397 238.67C375.397 238.945 375.304 239.171 375.116 239.347C374.935 239.522 374.674 239.61 374.334 239.61C374.088 239.61 373.877 239.54 373.701 239.399C373.531 239.259 373.335 239.048 373.112 238.767C372.931 238.532 372.717 238.345 372.471 238.204C372.225 238.063 371.891 237.993 371.469 237.993C371.035 237.993 370.675 238.087 370.388 238.274C370.101 238.456 369.957 238.685 369.957 238.96C369.957 239.212 370.062 239.42 370.273 239.584C370.484 239.742 370.769 239.874 371.126 239.979C371.483 240.085 371.976 240.214 372.603 240.366C373.347 240.548 373.953 240.765 374.422 241.017C374.896 241.269 375.254 241.567 375.494 241.913C375.74 242.253 375.863 242.643 375.863 243.082ZM388.968 248.18V244.796C388.505 245.259 388.021 245.613 387.518 245.859C387.02 246.1 386.466 246.22 385.856 246.22C385.112 246.22 384.433 246.023 383.817 245.631C383.208 245.238 382.728 244.676 382.376 243.943C382.03 243.205 381.857 242.338 381.857 241.342C381.857 240.322 382.033 239.449 382.385 238.723C382.736 237.99 383.223 237.434 383.844 237.053C384.471 236.672 385.165 236.481 385.927 236.481C386.571 236.481 387.148 236.616 387.658 236.886C388.168 237.149 388.604 237.554 388.968 238.099V237.809C388.968 237.369 389.073 237.035 389.284 236.807C389.495 236.578 389.768 236.464 390.102 236.464C390.436 236.464 390.708 236.578 390.919 236.807C391.13 237.029 391.235 237.363 391.235 237.809V248.18C391.235 249.246 390.857 249.779 390.102 249.779C389.633 249.779 389.325 249.636 389.179 249.349C389.038 249.062 388.968 248.672 388.968 248.18ZM384.266 241.324C384.266 241.969 384.368 242.525 384.573 242.994C384.784 243.457 385.06 243.803 385.399 244.031C385.739 244.254 386.105 244.365 386.498 244.365C386.926 244.365 387.318 244.254 387.676 244.031C388.033 243.803 388.32 243.457 388.537 242.994C388.754 242.531 388.862 241.96 388.862 241.28C388.862 240.8 388.798 240.366 388.669 239.979C388.546 239.593 388.376 239.273 388.159 239.021C387.942 238.764 387.693 238.573 387.412 238.45C387.131 238.321 386.832 238.257 386.516 238.257C385.871 238.257 385.335 238.523 384.907 239.057C384.479 239.59 384.266 240.346 384.266 241.324ZM399.875 244.866V244.559C399.588 244.922 399.286 245.227 398.97 245.473C398.653 245.719 398.308 245.9 397.933 246.018C397.558 246.141 397.13 246.202 396.649 246.202C396.069 246.202 395.548 246.082 395.085 245.842C394.628 245.602 394.273 245.271 394.021 244.849C393.723 244.339 393.573 243.606 393.573 242.651V237.896C393.573 237.416 393.682 237.059 393.898 236.824C394.115 236.584 394.402 236.464 394.76 236.464C395.123 236.464 395.416 236.584 395.639 236.824C395.861 237.064 395.973 237.422 395.973 237.896V241.737C395.973 242.294 396.02 242.763 396.113 243.144C396.207 243.519 396.374 243.814 396.614 244.031C396.86 244.242 397.191 244.348 397.607 244.348C398.012 244.348 398.393 244.228 398.75 243.987C399.107 243.747 399.368 243.434 399.532 243.047C399.667 242.707 399.734 241.963 399.734 240.814V237.896C399.734 237.422 399.846 237.064 400.068 236.824C400.291 236.584 400.581 236.464 400.938 236.464C401.296 236.464 401.583 236.584 401.8 236.824C402.017 237.059 402.125 237.416 402.125 237.896V244.849C402.125 245.306 402.02 245.648 401.809 245.877C401.604 246.105 401.337 246.22 401.009 246.22C400.681 246.22 400.408 246.103 400.191 245.868C399.98 245.628 399.875 245.294 399.875 244.866ZM411.222 241.931H406.528C406.534 242.476 406.643 242.956 406.854 243.372C407.07 243.788 407.354 244.102 407.706 244.312C408.063 244.523 408.456 244.629 408.884 244.629C409.171 244.629 409.432 244.597 409.666 244.532C409.906 244.462 410.138 244.356 410.36 244.216C410.583 244.069 410.788 243.914 410.976 243.75C411.163 243.586 411.406 243.363 411.705 243.082C411.828 242.977 412.004 242.924 412.232 242.924C412.479 242.924 412.678 242.991 412.83 243.126C412.982 243.261 413.059 243.451 413.059 243.697C413.059 243.914 412.974 244.169 412.804 244.462C412.634 244.749 412.376 245.027 412.03 245.297C411.69 245.561 411.26 245.78 410.738 245.956C410.223 246.132 409.628 246.22 408.954 246.22C407.413 246.22 406.215 245.78 405.359 244.901C404.504 244.022 404.076 242.83 404.076 241.324C404.076 240.615 404.182 239.959 404.393 239.355C404.604 238.746 404.911 238.225 405.315 237.791C405.72 237.357 406.218 237.026 406.81 236.798C407.401 236.563 408.058 236.446 408.778 236.446C409.716 236.446 410.519 236.646 411.187 237.044C411.86 237.437 412.364 237.946 412.698 238.573C413.032 239.2 413.199 239.839 413.199 240.489C413.199 241.093 413.026 241.485 412.681 241.667C412.335 241.843 411.849 241.931 411.222 241.931ZM406.528 240.568H410.879C410.82 239.748 410.598 239.136 410.211 238.731C409.83 238.321 409.326 238.116 408.699 238.116C408.102 238.116 407.609 238.324 407.223 238.74C406.842 239.15 406.61 239.76 406.528 240.568ZM427.71 241.518V244.708C427.71 245.212 427.596 245.59 427.367 245.842C427.139 246.094 426.837 246.22 426.462 246.22C426.099 246.22 425.803 246.094 425.574 245.842C425.352 245.59 425.24 245.212 425.24 244.708V240.885C425.24 240.281 425.22 239.812 425.179 239.479C425.138 239.145 425.026 238.872 424.845 238.661C424.663 238.444 424.376 238.336 423.983 238.336C423.198 238.336 422.68 238.605 422.428 239.145C422.182 239.684 422.059 240.457 422.059 241.465V244.708C422.059 245.206 421.944 245.584 421.716 245.842C421.493 246.094 421.197 246.22 420.828 246.22C420.465 246.22 420.166 246.094 419.932 245.842C419.703 245.584 419.589 245.206 419.589 244.708V237.844C419.589 237.393 419.691 237.05 419.896 236.815C420.107 236.581 420.383 236.464 420.723 236.464C421.051 236.464 421.323 236.575 421.54 236.798C421.763 237.015 421.874 237.316 421.874 237.703V237.932C422.29 237.434 422.735 237.067 423.21 236.833C423.685 236.599 424.212 236.481 424.792 236.481C425.396 236.481 425.914 236.602 426.348 236.842C426.781 237.082 427.139 237.445 427.42 237.932C427.824 237.439 428.258 237.076 428.721 236.842C429.184 236.602 429.696 236.481 430.259 236.481C430.915 236.481 431.48 236.61 431.955 236.868C432.43 237.126 432.784 237.495 433.019 237.976C433.224 238.409 433.326 239.092 433.326 240.023V244.708C433.326 245.212 433.212 245.59 432.983 245.842C432.755 246.094 432.453 246.22 432.078 246.22C431.715 246.22 431.416 246.094 431.182 245.842C430.953 245.584 430.839 245.206 430.839 244.708V240.674C430.839 240.158 430.815 239.745 430.769 239.435C430.728 239.124 430.61 238.863 430.417 238.652C430.224 238.441 429.931 238.336 429.538 238.336C429.222 238.336 428.92 238.43 428.633 238.617C428.352 238.805 428.132 239.057 427.974 239.373C427.798 239.777 427.71 240.492 427.71 241.518ZM441.72 244.866C441.14 245.317 440.577 245.657 440.032 245.886C439.493 246.108 438.887 246.22 438.213 246.22C437.598 246.22 437.056 246.1 436.587 245.859C436.124 245.613 435.767 245.282 435.515 244.866C435.263 244.45 435.137 243.999 435.137 243.513C435.137 242.856 435.345 242.297 435.761 241.834C436.177 241.371 436.748 241.061 437.475 240.902C437.627 240.867 438.005 240.788 438.608 240.665C439.212 240.542 439.728 240.431 440.155 240.331C440.589 240.226 441.058 240.1 441.562 239.953C441.532 239.32 441.403 238.857 441.175 238.564C440.952 238.266 440.486 238.116 439.777 238.116C439.168 238.116 438.708 238.201 438.397 238.371C438.093 238.541 437.829 238.796 437.606 239.136C437.39 239.476 437.234 239.701 437.141 239.812C437.053 239.918 436.859 239.971 436.561 239.971C436.291 239.971 436.057 239.886 435.857 239.716C435.664 239.54 435.567 239.317 435.567 239.048C435.567 238.626 435.717 238.216 436.016 237.817C436.314 237.419 436.78 237.091 437.413 236.833C438.046 236.575 438.834 236.446 439.777 236.446C440.832 236.446 441.661 236.572 442.265 236.824C442.868 237.07 443.293 237.463 443.539 238.002C443.791 238.541 443.917 239.256 443.917 240.146C443.917 240.709 443.914 241.187 443.908 241.579C443.908 241.972 443.905 242.408 443.899 242.889C443.899 243.34 443.973 243.812 444.119 244.304C444.271 244.79 444.348 245.104 444.348 245.244C444.348 245.49 444.23 245.716 443.996 245.921C443.768 246.12 443.507 246.22 443.214 246.22C442.968 246.22 442.725 246.105 442.484 245.877C442.244 245.643 441.989 245.306 441.72 244.866ZM441.562 241.395C441.21 241.523 440.697 241.661 440.023 241.808C439.355 241.948 438.893 242.054 438.635 242.124C438.377 242.188 438.131 242.32 437.896 242.52C437.662 242.713 437.545 242.985 437.545 243.337C437.545 243.7 437.683 244.011 437.958 244.269C438.233 244.521 438.594 244.646 439.039 244.646C439.514 244.646 439.95 244.544 440.349 244.339C440.753 244.128 441.049 243.858 441.236 243.53C441.453 243.167 441.562 242.569 441.562 241.737V241.395ZM440.12 233.019H441.307C441.605 233.019 441.755 233.062 441.755 233.15C441.755 233.197 441.591 233.388 441.263 233.722C440.935 234.056 440.604 234.375 440.27 234.68C439.936 234.984 439.704 235.169 439.575 235.233C439.241 235.403 438.884 235.488 438.503 235.488C438.251 235.488 438.125 235.415 438.125 235.269C438.125 235.169 438.201 234.996 438.354 234.75L438.749 234.012C438.978 233.584 439.177 233.312 439.347 233.194C439.517 233.077 439.774 233.019 440.12 233.019ZM454.086 243.082C454.086 243.744 453.925 244.312 453.603 244.787C453.28 245.256 452.803 245.613 452.17 245.859C451.543 246.1 450.778 246.22 449.876 246.22C449.015 246.22 448.276 246.088 447.661 245.824C447.046 245.561 446.592 245.232 446.299 244.84C446.006 244.441 445.859 244.043 445.859 243.645C445.859 243.381 445.953 243.155 446.141 242.968C446.328 242.78 446.565 242.687 446.853 242.687C447.104 242.687 447.298 242.748 447.433 242.871C447.567 242.994 447.696 243.167 447.819 243.39C448.065 243.817 448.358 244.137 448.698 244.348C449.044 244.559 449.513 244.664 450.104 244.664C450.585 244.664 450.978 244.559 451.282 244.348C451.593 244.131 451.748 243.885 451.748 243.609C451.748 243.188 451.587 242.88 451.265 242.687C450.948 242.493 450.424 242.309 449.691 242.133C448.865 241.928 448.191 241.714 447.67 241.491C447.154 241.263 446.741 240.964 446.431 240.595C446.12 240.226 445.965 239.771 445.965 239.232C445.965 238.752 446.108 238.298 446.396 237.87C446.683 237.442 447.104 237.103 447.661 236.851C448.224 236.593 448.9 236.464 449.691 236.464C450.312 236.464 450.869 236.528 451.361 236.657C451.859 236.786 452.272 236.959 452.601 237.176C452.935 237.393 453.187 237.633 453.356 237.896C453.532 238.16 453.62 238.418 453.62 238.67C453.62 238.945 453.526 239.171 453.339 239.347C453.157 239.522 452.896 239.61 452.557 239.61C452.311 239.61 452.1 239.54 451.924 239.399C451.754 239.259 451.558 239.048 451.335 238.767C451.153 238.532 450.939 238.345 450.693 238.204C450.447 238.063 450.113 237.993 449.691 237.993C449.258 237.993 448.897 238.087 448.61 238.274C448.323 238.456 448.18 238.685 448.18 238.96C448.18 239.212 448.285 239.42 448.496 239.584C448.707 239.742 448.991 239.874 449.349 239.979C449.706 240.085 450.198 240.214 450.825 240.366C451.569 240.548 452.176 240.765 452.645 241.017C453.119 241.269 453.477 241.567 453.717 241.913C453.963 242.253 454.086 242.643 454.086 243.082ZM466.681 244.866C466.101 245.317 465.538 245.657 464.993 245.886C464.454 246.108 463.848 246.22 463.174 246.22C462.559 246.22 462.017 246.1 461.548 245.859C461.085 245.613 460.728 245.282 460.476 244.866C460.224 244.45 460.098 243.999 460.098 243.513C460.098 242.856 460.306 242.297 460.722 241.834C461.138 241.371 461.709 241.061 462.436 240.902C462.588 240.867 462.966 240.788 463.569 240.665C464.173 240.542 464.688 240.431 465.116 240.331C465.55 240.226 466.019 240.1 466.522 239.953C466.493 239.32 466.364 238.857 466.136 238.564C465.913 238.266 465.447 238.116 464.738 238.116C464.129 238.116 463.669 238.201 463.358 238.371C463.054 238.541 462.79 238.796 462.567 239.136C462.351 239.476 462.195 239.701 462.102 239.812C462.014 239.918 461.82 239.971 461.521 239.971C461.252 239.971 461.018 239.886 460.818 239.716C460.625 239.54 460.528 239.317 460.528 239.048C460.528 238.626 460.678 238.216 460.977 237.817C461.275 237.419 461.741 237.091 462.374 236.833C463.007 236.575 463.795 236.446 464.738 236.446C465.793 236.446 466.622 236.572 467.226 236.824C467.829 237.07 468.254 237.463 468.5 238.002C468.752 238.541 468.878 239.256 468.878 240.146C468.878 240.709 468.875 241.187 468.869 241.579C468.869 241.972 468.866 242.408 468.86 242.889C468.86 243.34 468.934 243.812 469.08 244.304C469.232 244.79 469.309 245.104 469.309 245.244C469.309 245.49 469.191 245.716 468.957 245.921C468.729 246.12 468.468 246.22 468.175 246.22C467.929 246.22 467.686 246.105 467.445 245.877C467.205 245.643 466.95 245.306 466.681 244.866ZM466.522 241.395C466.171 241.523 465.658 241.661 464.984 241.808C464.316 241.948 463.854 242.054 463.596 242.124C463.338 242.188 463.092 242.32 462.857 242.52C462.623 242.713 462.506 242.985 462.506 243.337C462.506 243.7 462.644 244.011 462.919 244.269C463.194 244.521 463.555 244.646 464 244.646C464.475 244.646 464.911 244.544 465.31 244.339C465.714 244.128 466.01 243.858 466.197 243.53C466.414 243.167 466.522 242.569 466.522 241.737V241.395ZM479.302 241.518V244.708C479.302 245.212 479.188 245.59 478.959 245.842C478.73 246.094 478.429 246.22 478.054 246.22C477.69 246.22 477.395 246.094 477.166 245.842C476.943 245.59 476.832 245.212 476.832 244.708V240.885C476.832 240.281 476.812 239.812 476.771 239.479C476.729 239.145 476.618 238.872 476.437 238.661C476.255 238.444 475.968 238.336 475.575 238.336C474.79 238.336 474.271 238.605 474.02 239.145C473.773 239.684 473.65 240.457 473.65 241.465V244.708C473.65 245.206 473.536 245.584 473.308 245.842C473.085 246.094 472.789 246.22 472.42 246.22C472.057 246.22 471.758 246.094 471.523 245.842C471.295 245.584 471.181 245.206 471.181 244.708V237.844C471.181 237.393 471.283 237.05 471.488 236.815C471.699 236.581 471.975 236.464 472.314 236.464C472.643 236.464 472.915 236.575 473.132 236.798C473.354 237.015 473.466 237.316 473.466 237.703V237.932C473.882 237.434 474.327 237.067 474.802 236.833C475.276 236.599 475.804 236.481 476.384 236.481C476.987 236.481 477.506 236.602 477.939 236.842C478.373 237.082 478.73 237.445 479.012 237.932C479.416 237.439 479.85 237.076 480.312 236.842C480.775 236.602 481.288 236.481 481.851 236.481C482.507 236.481 483.072 236.61 483.547 236.868C484.021 237.126 484.376 237.495 484.61 237.976C484.815 238.409 484.918 239.092 484.918 240.023V244.708C484.918 245.212 484.804 245.59 484.575 245.842C484.347 246.094 484.045 246.22 483.67 246.22C483.307 246.22 483.008 246.094 482.773 245.842C482.545 245.584 482.431 245.206 482.431 244.708V240.674C482.431 240.158 482.407 239.745 482.36 239.435C482.319 239.124 482.202 238.863 482.009 238.652C481.815 238.441 481.522 238.336 481.13 238.336C480.813 238.336 480.512 238.43 480.225 238.617C479.943 238.805 479.724 239.057 479.565 239.373C479.39 239.777 479.302 240.492 479.302 241.518ZM493.312 244.866C492.731 245.317 492.169 245.657 491.624 245.886C491.085 246.108 490.479 246.22 489.805 246.22C489.189 246.22 488.647 246.1 488.179 245.859C487.716 245.613 487.358 245.282 487.106 244.866C486.854 244.45 486.729 243.999 486.729 243.513C486.729 242.856 486.937 242.297 487.353 241.834C487.769 241.371 488.34 241.061 489.066 240.902C489.219 240.867 489.597 240.788 490.2 240.665C490.804 240.542 491.319 240.431 491.747 240.331C492.181 240.226 492.649 240.1 493.153 239.953C493.124 239.32 492.995 238.857 492.767 238.564C492.544 238.266 492.078 238.116 491.369 238.116C490.76 238.116 490.3 238.201 489.989 238.371C489.685 238.541 489.421 238.796 489.198 239.136C488.981 239.476 488.826 239.701 488.732 239.812C488.645 239.918 488.451 239.971 488.152 239.971C487.883 239.971 487.648 239.886 487.449 239.716C487.256 239.54 487.159 239.317 487.159 239.048C487.159 238.626 487.309 238.216 487.607 237.817C487.906 237.419 488.372 237.091 489.005 236.833C489.638 236.575 490.426 236.446 491.369 236.446C492.424 236.446 493.253 236.572 493.856 236.824C494.46 237.07 494.885 237.463 495.131 238.002C495.383 238.541 495.509 239.256 495.509 240.146C495.509 240.709 495.506 241.187 495.5 241.579C495.5 241.972 495.497 242.408 495.491 242.889C495.491 243.34 495.564 243.812 495.711 244.304C495.863 244.79 495.939 245.104 495.939 245.244C495.939 245.49 495.822 245.716 495.588 245.921C495.359 246.12 495.099 246.22 494.806 246.22C494.56 246.22 494.316 246.105 494.076 245.877C493.836 245.643 493.581 245.306 493.312 244.866ZM493.153 241.395C492.802 241.523 492.289 241.661 491.615 241.808C490.947 241.948 490.484 242.054 490.227 242.124C489.969 242.188 489.723 242.32 489.488 242.52C489.254 242.713 489.137 242.985 489.137 243.337C489.137 243.7 489.274 244.011 489.55 244.269C489.825 244.521 490.186 244.646 490.631 244.646C491.105 244.646 491.542 244.544 491.94 244.339C492.345 244.128 492.641 243.858 492.828 243.53C493.045 243.167 493.153 242.569 493.153 241.737V241.395ZM505.678 243.082C505.678 243.744 505.517 244.312 505.194 244.787C504.872 245.256 504.395 245.613 503.762 245.859C503.135 246.1 502.37 246.22 501.468 246.22C500.606 246.22 499.868 246.088 499.253 245.824C498.638 245.561 498.184 245.232 497.891 244.84C497.598 244.441 497.451 244.043 497.451 243.645C497.451 243.381 497.545 243.155 497.732 242.968C497.92 242.78 498.157 242.687 498.444 242.687C498.696 242.687 498.89 242.748 499.024 242.871C499.159 242.994 499.288 243.167 499.411 243.39C499.657 243.817 499.95 244.137 500.29 244.348C500.636 244.559 501.104 244.664 501.696 244.664C502.177 244.664 502.569 244.559 502.874 244.348C503.185 244.131 503.34 243.885 503.34 243.609C503.34 243.188 503.179 242.88 502.856 242.687C502.54 242.493 502.016 242.309 501.283 242.133C500.457 241.928 499.783 241.714 499.262 241.491C498.746 241.263 498.333 240.964 498.022 240.595C497.712 240.226 497.557 239.771 497.557 239.232C497.557 238.752 497.7 238.298 497.987 237.87C498.274 237.442 498.696 237.103 499.253 236.851C499.815 236.593 500.492 236.464 501.283 236.464C501.904 236.464 502.461 236.528 502.953 236.657C503.451 236.786 503.864 236.959 504.192 237.176C504.526 237.393 504.778 237.633 504.948 237.896C505.124 238.16 505.212 238.418 505.212 238.67C505.212 238.945 505.118 239.171 504.931 239.347C504.749 239.522 504.488 239.61 504.148 239.61C503.902 239.61 503.691 239.54 503.516 239.399C503.346 239.259 503.149 239.048 502.927 238.767C502.745 238.532 502.531 238.345 502.285 238.204C502.039 238.063 501.705 237.993 501.283 237.993C500.85 237.993 500.489 238.087 500.202 238.274C499.915 238.456 499.771 238.685 499.771 238.96C499.771 239.212 499.877 239.42 500.088 239.584C500.299 239.742 500.583 239.874 500.94 239.979C501.298 240.085 501.79 240.214 502.417 240.366C503.161 240.548 503.768 240.765 504.236 241.017C504.711 241.269 505.068 241.567 505.309 241.913C505.555 242.253 505.678 242.643 505.678 243.082ZM508.499 240.419L508.218 236.209C508.165 235.389 508.139 234.8 508.139 234.442C508.139 233.956 508.265 233.578 508.517 233.309C508.774 233.033 509.111 232.896 509.527 232.896C510.031 232.896 510.368 233.071 510.538 233.423C510.708 233.769 510.793 234.27 510.793 234.926C510.793 235.312 510.772 235.705 510.731 236.104L510.354 240.437C510.312 240.952 510.225 241.348 510.09 241.623C509.955 241.898 509.732 242.036 509.422 242.036C509.105 242.036 508.886 241.904 508.763 241.641C508.64 241.371 508.552 240.964 508.499 240.419ZM509.475 246.202C509.117 246.202 508.804 246.088 508.534 245.859C508.271 245.625 508.139 245.3 508.139 244.884C508.139 244.521 508.265 244.213 508.517 243.961C508.774 243.703 509.088 243.574 509.457 243.574C509.826 243.574 510.14 243.703 510.397 243.961C510.661 244.213 510.793 244.521 510.793 244.884C510.793 245.294 510.661 245.616 510.397 245.851C510.134 246.085 509.826 246.202 509.475 246.202Z" fill="white"/>
</g>
<defs>
<clipPath id="clip0_201_254">
<rect width="581" height="255.47" fill="white"/>
</clipPath>
</defs>
</svg>
